<?xml version="1.0" encoding="iso-8859-1"?>
<!-- Generator: Adobe Illustrator 16.0.0, SVG Export Plug-In . SVG Version: 6.00 Build 0)  -->
<!DOCTYPE svg PUBLIC "-//W3C//DTD SVG 1.1//EN" "http://www.w3.org/Graphics/SVG/1.1/DTD/svg11.dtd">
<svg version="1.1" id="Layer_1" xmlns="http://www.w3.org/2000/svg" xmlns:xlink="http://www.w3.org/1999/xlink" x="0px" y="0px"
	 width="1133.86px" height="708.66px" viewBox="0 0 1133.86 708.66" style="enable-background:new 0 0 1133.86 708.66;"
	 xml:space="preserve">
<path style="fill:#FFFFFF;" d="M1125.851,102.185h-6.904c-1.066,0-1.935-0.868-1.935-1.935v-8.274c0-1.066,0.868-1.934,1.935-1.934
	h6.904c1.067,0,1.936,0.868,1.936,1.934v8.274C1127.786,101.317,1126.918,102.185,1125.851,102.185z M1118.946,91.042
	c-0.516,0-0.935,0.419-0.935,0.934v8.274c0,0.515,0.419,0.935,0.935,0.935h6.904c0.516,0,0.936-0.419,0.936-0.935v-8.274
	c0-0.515-0.42-0.934-0.936-0.934H1118.946z"/>
<g>
	<path style="fill:#FFFFFF;" d="M1121.19,91.75c0,0.414-0.336,0.75-0.75,0.75l0,0c-0.414,0-0.75-0.336-0.75-0.75v-2
		c0-0.414,0.336-0.75,0.75-0.75l0,0c0.414,0,0.75,0.336,0.75,0.75V91.75z"/>
	<path style="fill:#FFFFFF;" d="M1125.106,91.75c0,0.414-0.336,0.75-0.75,0.75l0,0c-0.414,0-0.75-0.336-0.75-0.75v-2
		c0-0.414,0.336-0.75,0.75-0.75l0,0c0.414,0,0.75,0.336,0.75,0.75V91.75z"/>
</g>
<g>
	<path style="fill:#FFFFFF;" d="M1120.486,95.804c0.056,0,0.118-0.014,0.144-0.021l0.068-0.018v1.854
		c0,0.243,0.198,0.441,0.441,0.441c0.244,0,0.442-0.198,0.442-0.441v-2.35c0-0.243-0.198-0.441-0.45-0.441
		c-0.102,0-0.203,0.022-0.335,0.059l-0.412,0.121c-0.184,0.053-0.303,0.208-0.303,0.395
		C1120.082,95.621,1120.268,95.804,1120.486,95.804z"/>
	<path style="fill:#FFFFFF;" d="M1124.237,97.632v-0.225h0.029c0.217,0,0.387-0.168,0.387-0.383c0-0.214-0.174-0.388-0.387-0.388
		h-0.029v-1.383c0-0.241-0.19-0.429-0.434-0.429c-0.253,0-0.378,0.124-0.494,0.26l-1.268,1.471c-0.089,0.105-0.18,0.238-0.18,0.431
		c0,0.236,0.192,0.421,0.438,0.421h1.075v0.225c0,0.241,0.188,0.429,0.429,0.429C1124.047,98.062,1124.237,97.873,1124.237,97.632z
		 M1123.5,95.854v0.908h-0.775L1123.5,95.854z"/>
	<path style="fill:#FFFFFF;" d="M1121.597,98.592c-0.172,0-0.305,0.071-0.416,0.201c-0.066-0.128-0.191-0.201-0.357-0.201
		c-0.182,0-0.29,0.097-0.373,0.204v-0.014c0-0.1-0.081-0.18-0.18-0.18c-0.1,0-0.18,0.08-0.18,0.18v0.937
		c0,0.099,0.08,0.18,0.18,0.18c0.099,0,0.18-0.081,0.18-0.18v-0.542c0-0.17,0.083-0.258,0.218-0.258s0.21,0.087,0.21,0.258v0.542
		c0,0.099,0.081,0.18,0.18,0.18c0.1,0,0.18-0.081,0.18-0.18v-0.542c0-0.17,0.083-0.258,0.218-0.258s0.211,0.087,0.211,0.258v0.542
		c0,0.099,0.08,0.18,0.18,0.18c0.099,0,0.18-0.081,0.18-0.18v-0.66C1122.025,98.753,1121.864,98.592,1121.597,98.592z"/>
	<path style="fill:#FFFFFF;" d="M1122.858,98.602c-0.168,0-0.291,0.023-0.404,0.066c-0.057,0.021-0.097,0.076-0.097,0.14
		c0,0.083,0.066,0.146,0.148,0.146c0.017,0,0.031-0.002,0.053-0.009c0.068-0.021,0.148-0.036,0.248-0.036
		c0.18,0,0.272,0.083,0.272,0.232v0.021c-0.09-0.031-0.183-0.052-0.311-0.052c-0.3,0-0.511,0.128-0.511,0.404v0.005
		c0,0.25,0.196,0.388,0.436,0.388c0.175,0,0.296-0.063,0.383-0.161v0.002c0,0.076,0.068,0.149,0.173,0.149
		c0.097,0,0.175-0.076,0.175-0.173v-0.577c0-0.17-0.042-0.31-0.137-0.405C1123.197,98.653,1123.055,98.602,1122.858,98.602z
		 M1123.083,99.437c0,0.13-0.113,0.222-0.281,0.222c-0.115,0-0.196-0.057-0.196-0.154V99.5c0-0.113,0.095-0.175,0.248-0.175
		c0.088,0,0.168,0.019,0.229,0.047V99.437z"/>
	<path style="fill:#FFFFFF;" d="M1124.687,98.602c-0.092,0-0.144,0.062-0.172,0.137l-0.266,0.735l-0.274-0.738
		c-0.03-0.085-0.082-0.135-0.172-0.135c-0.1,0-0.178,0.071-0.178,0.172c0,0.024,0.01,0.059,0.019,0.083l0.433,1.003l-0.012,0.028
		c-0.033,0.063-0.063,0.076-0.127,0.076c-0.026,0-0.045-0.005-0.076-0.014c-0.014-0.005-0.03-0.01-0.059-0.01
		c-0.074,0-0.143,0.059-0.143,0.147c0,0.087,0.062,0.13,0.113,0.149c0.06,0.021,0.116,0.033,0.197,0.033
		c0.215,0,0.321-0.097,0.428-0.355l0.442-1.062c0.007-0.017,0.017-0.057,0.017-0.085
		C1124.857,98.672,1124.779,98.602,1124.687,98.602z"/>
</g>
<rect x="1117.367" y="93.083" style="fill:#FFFFFF;" width="9.916" height="1"/>
</svg>
