<?xml version="1.0" encoding="iso-8859-1"?>
<!-- Generator: Adobe Illustrator 16.0.0, SVG Export Plug-In . SVG Version: 6.00 Build 0)  -->
<!DOCTYPE svg PUBLIC "-//W3C//DTD SVG 1.1//EN" "http://www.w3.org/Graphics/SVG/1.1/DTD/svg11.dtd">
<svg version="1.1" id="Layer_1" xmlns="http://www.w3.org/2000/svg" xmlns:xlink="http://www.w3.org/1999/xlink" x="0px" y="0px"
	 width="10.774px" height="13.185px" viewBox="0 0 10.774 13.185" style="enable-background:new 0 0 10.774 13.185;"
	 xml:space="preserve">
<path style="fill:#060505;" d="M8.839,13.185H1.935C0.868,13.185,0,12.316,0,11.25V2.976c0-1.066,0.868-1.934,1.935-1.934h6.904
	c1.067,0,1.936,0.868,1.936,1.934v8.274C10.774,12.316,9.906,13.185,8.839,13.185z M1.935,2.042C1.419,2.042,1,2.46,1,2.976v8.274
	c0,0.516,0.419,0.935,0.935,0.935h6.904c0.516,0,0.936-0.419,0.936-0.935V2.976c0-0.515-0.42-0.934-0.936-0.934H1.935z"/>
<g>
	<path style="fill:#060505;" d="M4.179,2.75c0,0.414-0.336,0.75-0.75,0.75l0,0c-0.414,0-0.75-0.336-0.75-0.75v-2
		C2.679,0.336,3.015,0,3.429,0l0,0c0.414,0,0.75,0.336,0.75,0.75V2.75z"/>
	<path style="fill:#060505;" d="M8.095,2.75c0,0.414-0.336,0.75-0.75,0.75l0,0c-0.414,0-0.75-0.336-0.75-0.75v-2
		C6.595,0.336,6.931,0,7.345,0l0,0c0.414,0,0.75,0.336,0.75,0.75V2.75z"/>
</g>
<g>
	<path style="fill:#060505;" d="M3.475,6.804c0.056,0,0.118-0.014,0.144-0.021l0.068-0.018V8.62c0,0.243,0.198,0.441,0.441,0.441
		c0.244,0,0.442-0.198,0.442-0.441v-2.35c0-0.243-0.198-0.441-0.45-0.441c-0.102,0-0.203,0.022-0.335,0.059L3.373,6.009
		C3.189,6.062,3.07,6.217,3.07,6.404C3.07,6.621,3.256,6.804,3.475,6.804z"/>
	<path style="fill:#060505;" d="M7.226,8.633V8.408h0.029c0.217,0,0.387-0.169,0.387-0.384c0-0.214-0.174-0.388-0.387-0.388H7.226
		V6.254c0-0.241-0.19-0.429-0.434-0.429c-0.253,0-0.378,0.124-0.494,0.26L5.03,7.556c-0.089,0.105-0.18,0.238-0.18,0.431
		c0,0.236,0.192,0.421,0.438,0.421h1.075v0.225c0,0.24,0.188,0.429,0.429,0.429C7.035,9.062,7.226,8.873,7.226,8.633z M6.488,6.854
		v0.908H5.713L6.488,6.854z"/>
	<path style="fill:#060505;" d="M4.585,9.592c-0.172,0-0.305,0.071-0.416,0.201C4.103,9.665,3.978,9.592,3.812,9.592
		c-0.182,0-0.29,0.098-0.373,0.203V9.781c0-0.1-0.081-0.18-0.18-0.18c-0.1,0-0.18,0.08-0.18,0.18v0.937c0,0.099,0.08,0.18,0.18,0.18
		c0.099,0,0.18-0.081,0.18-0.18v-0.542c0-0.17,0.083-0.258,0.218-0.258s0.21,0.088,0.21,0.258v0.542c0,0.099,0.081,0.18,0.18,0.18
		c0.1,0,0.18-0.081,0.18-0.18v-0.542c0-0.17,0.083-0.258,0.218-0.258s0.211,0.088,0.211,0.258v0.542c0,0.099,0.08,0.18,0.18,0.18
		c0.099,0,0.18-0.081,0.18-0.18v-0.659C5.014,9.753,4.853,9.592,4.585,9.592z"/>
	<path style="fill:#060505;" d="M5.847,9.602c-0.168,0-0.291,0.023-0.404,0.066C5.386,9.689,5.346,9.743,5.346,9.807
		c0,0.084,0.066,0.146,0.148,0.146c0.017,0,0.031-0.002,0.053-0.009c0.068-0.021,0.148-0.036,0.248-0.036
		c0.18,0,0.272,0.084,0.272,0.232v0.021c-0.09-0.031-0.183-0.053-0.311-0.053c-0.3,0-0.511,0.129-0.511,0.404v0.006
		c0,0.25,0.196,0.387,0.436,0.387c0.175,0,0.296-0.062,0.383-0.16v0.002c0,0.076,0.068,0.149,0.173,0.149
		c0.097,0,0.175-0.075,0.175-0.173v-0.576c0-0.171-0.042-0.311-0.137-0.405C6.186,9.653,6.043,9.602,5.847,9.602z M6.071,10.437
		c0,0.13-0.113,0.222-0.281,0.222c-0.115,0-0.196-0.057-0.196-0.153V10.5c0-0.113,0.095-0.175,0.248-0.175
		c0.088,0,0.168,0.019,0.229,0.048V10.437z"/>
	<path style="fill:#060505;" d="M7.675,9.602c-0.092,0-0.144,0.062-0.172,0.137l-0.266,0.736L6.963,9.736
		C6.933,9.65,6.881,9.602,6.791,9.602c-0.1,0-0.178,0.07-0.178,0.172c0,0.024,0.01,0.06,0.019,0.084l0.433,1.002l-0.012,0.029
		c-0.033,0.062-0.063,0.075-0.127,0.075c-0.026,0-0.045-0.005-0.076-0.015c-0.014-0.004-0.03-0.01-0.059-0.01
		c-0.074,0-0.143,0.06-0.143,0.147c0,0.087,0.062,0.13,0.113,0.149c0.06,0.021,0.116,0.033,0.197,0.033
		c0.215,0,0.321-0.098,0.428-0.355l0.442-1.062c0.007-0.016,0.017-0.057,0.017-0.084C7.846,9.672,7.768,9.602,7.675,9.602z"/>
</g>
<rect x="0.355" y="4.083" style="fill:#060505;" width="9.916" height="1"/>
</svg>
