<?xml version="1.0" encoding="iso-8859-1"?>
<!-- Generator: Adobe Illustrator 16.0.0, SVG Export Plug-In . SVG Version: 6.00 Build 0)  -->
<!DOCTYPE svg PUBLIC "-//W3C//DTD SVG 1.1//EN" "http://www.w3.org/Graphics/SVG/1.1/DTD/svg11.dtd">
<svg version="1.1" id="Layer_1" xmlns="http://www.w3.org/2000/svg" xmlns:xlink="http://www.w3.org/1999/xlink" x="0px" y="0px"
	 width="612px" height="792px" viewBox="0 0 612 792" style="enable-background:new 0 0 612 792;" xml:space="preserve">
<g>
	<path style="fill:#010101;" d="M306.542,402.545l-2.054-3.402h-1.887c-1.066,0-1.935-0.867-1.935-1.935v-4.691
		c0-1.066,0.868-1.934,1.935-1.934h7.586c1.067,0,1.936,0.868,1.936,1.934v4.691c0,1.067-0.868,1.935-1.936,1.935h-1.788
		L306.542,402.545z M302.602,391.583c-0.516,0-0.935,0.419-0.935,0.934v4.691c0,0.515,0.419,0.935,0.935,0.935h2.451l1.446,2.395
		l1.307-2.395h2.382c0.516,0,0.936-0.42,0.936-0.935v-4.691c0-0.515-0.42-0.934-0.936-0.934H302.602z"/>
	<path style="fill:#010101;" d="M300.935,397.56c-1.066,0-1.935-0.868-1.935-1.935v-4.691c0-1.066,0.868-1.934,1.935-1.934h7.586
		c1.067,0,1.936,0.868,1.936,1.934h-1c0-0.515-0.42-0.934-0.936-0.934h-7.586c-0.516,0-0.935,0.419-0.935,0.934v4.691
		c0,0.515,0.419,0.935,0.935,0.935V397.56z"/>
	<rect x="303.104" y="392.756" style="fill:#010101;" width="4.583" height="3.917"/>
	<polygon style="fill:#010101;" points="309.581,392.767 307.633,394.714 309.581,396.663 	"/>
</g>
</svg>
